# xmcd
#
# Track frame offsets:
#	150
#	17255
#	36186
#	52923
#	64481
#	86984
#	109847
#	118237
#	132189
#	145977
#	166249
#
# Disc length: 2579 seconds
#
# Revision: 0
# Processed by: cddbd v1.5.2PL0 Copyright (c) Steve Scherf et al.
# Submitted via: EasyCDDAExtractor 15.3.0.1
#
DISCID=980a110b
DTITLE=A-ha - Hunting high and low
DYEAR=1985
DGENRE=
TTITLE0=Take on me
TTITLE1=Train of thought
TTITLE2=Hunting high and low
TTITLE3=The Blue sky
TTITLE4=Living a boy´s adventure tale
TTITLE5=The sun always shines on TV
TTITLE6=And you tell me
TTITLE7=Love is reason
TTITLE8=I dream myself alive
TTITLE9=Here I stand and face the rain
TTITLE10=Hunting high and low (Maxi)
EXTD=
EXTT0=
EXTT1=
EXTT2=
EXTT3=
EXTT4=
EXTT5=
EXTT6=
EXTT7=
EXTT8=
EXTT9=
EXTT10=
PLAYORDER=
